HIERARCHY
ROOT hip
{
  OFFSET 0 0 0
  CHANNELS 6 Xposition Yposition Zposition Zrotation Yrotation Xrotation
  JOINT abdomen
  {
    OFFSET 0 20.6881 -0.73152
    CHANNELS 3 Zrotation Xrotation Yrotation
    JOINT chest
    {
      OFFSET 0 11.7043 -0.48768
      CHANNELS 3 Zrotation Xrotation Yrotation
      JOINT neck
      {
        OFFSET 0 22.1894 -2.19456
        CHANNELS 3 Zrotation Xrotation Yrotation
        JOINT head
        {
          OFFSET -0.24384 7.07133 1.2192
          CHANNELS 3 Zrotation Xrotation Yrotation
          JOINT leftEye
          {
            OFFSET 4.14528 8.04674 8.04672
            CHANNELS 3 Zrotation Xrotation Yrotation
            End Site
            {
              OFFSET 1 0 0
            }
          }
          JOINT rightEye
          {
            OFFSET -3.6576 8.04674 8.04672
            CHANNELS 3 Zrotation Xrotation Yrotation
            End Site
            {
              OFFSET 1 0 0
            }
          }
        }
      }
      JOINT rCollar
      {
        OFFSET -2.68224 19.2634 -4.8768
        CHANNELS 3 Zrotation Xrotation Yrotation
        JOINT rShldr
        {
          OFFSET -8.77824 -1.95073 1.46304
          CHANNELS 3 Zrotation Xrotation Yrotation
          JOINT rForeArm
          {
            OFFSET -28.1742 -1.7115 0.48768
            CHANNELS 3 Zrotation Xrotation Yrotation
            JOINT rHand
            {
              OFFSET -22.5879 0.773209 7.07136
              CHANNELS 3 Zrotation Xrotation Yrotation
              JOINT rThumb1
              {
                OFFSET -1.2192 -0.487915 3.41376
                CHANNELS 3 Zrotation Xrotation Yrotation
                JOINT rThumb2
                {
                  OFFSET -3.37035 -0.52449 3.41376
                  CHANNELS 3 Zrotation Xrotation Yrotation
                  End Site
                  {
                    OFFSET -1.78271 -1.18214 1.43049
                  }
                }
              }
              JOINT rIndex1
              {
                OFFSET -7.75947 0.938293 5.60832
                CHANNELS 3 Zrotation Xrotation Yrotation
                JOINT rIndex2
                {
                  OFFSET -2.54057 -0.884171 1.56538
                  CHANNELS 3 Zrotation Xrotation Yrotation
                  End Site
                  {
                    OFFSET -1.62519 -0.234802 1.16502
                  }
                }
              }
              JOINT rMid1
              {
                OFFSET -8.24714 1.18213 3.41376
                CHANNELS 3 Zrotation Xrotation Yrotation
                JOINT rMid2
                {
                  OFFSET -3.10165 -0.590103 1.0647
                  CHANNELS 3 Zrotation Xrotation Yrotation
                  End Site
                  {
                    OFFSET -2.48547 -0.328903 0.83742
                  }
                }
              }
              JOINT rRing1
              {
                OFFSET -8.82822 0.546677 1.51678
                CHANNELS 3 Zrotation Xrotation Yrotation
                JOINT rRing2
                {
                  OFFSET -2.60934 -0.819778 -0.0198488
                  CHANNELS 3 Zrotation Xrotation Yrotation
                  End Site
                  {
                    OFFSET -2.33842 -0.294052 0.168128
                  }
                }
              }
              JOINT rPinky1
              {
                OFFSET -8.27202 -0.0477905 -0.4584
                CHANNELS 3 Zrotation Xrotation Yrotation
                JOINT rPinky2
                {
                  OFFSET -1.82734 -0.647385 -0.700984
                  CHANNELS 3 Zrotation Xrotation Yrotation
                  End Site
                  {
                    OFFSET -1.69225 -0.51767 -0.607171
                  }
                }
              }
            }
          }
        }
      }
      JOINT lCollar
      {
        OFFSET 2.68224 19.2634 -4.8768
        CHANNELS 3 Zrotation Xrotation Yrotation
        JOINT lShldr
        {
          OFFSET 8.77824 -1.95073 1.46304
          CHANNELS 3 Zrotation Xrotation Yrotation
          JOINT lForeArm
          {
            OFFSET 28.1742 -1.7115 0.48768
            CHANNELS 3 Zrotation Xrotation Yrotation
            JOINT lHand
            {
              OFFSET 22.5879 0.773209 7.07136
              CHANNELS 3 Zrotation Xrotation Yrotation
              JOINT lThumb1
              {
                OFFSET 1.2192 -0.487915 3.41376
                CHANNELS 3 Zrotation Xrotation Yrotation
                JOINT lThumb2
                {
                  OFFSET 3.37035 -0.52449 3.41376
                  CHANNELS 3 Zrotation Xrotation Yrotation
                  End Site
                  {
                    OFFSET 1.78271 -1.18214 1.43049
                  }
                }
              }
              JOINT lIndex1
              {
                OFFSET 7.75947 0.938293 5.60832
                CHANNELS 3 Zrotation Xrotation Yrotation
                JOINT lIndex2
                {
                  OFFSET 2.54057 -0.884171 1.56538
                  CHANNELS 3 Zrotation Xrotation Yrotation
                  End Site
                  {
                    OFFSET 1.62519 -0.234802 1.16502
                  }
                }
              }
              JOINT lMid1
              {
                OFFSET 8.24714 1.18213 3.41376
                CHANNELS 3 Zrotation Xrotation Yrotation
                JOINT lMid2
                {
                  OFFSET 3.10165 -0.590103 1.0647
                  CHANNELS 3 Zrotation Xrotation Yrotation
                  End Site
                  {
                    OFFSET 2.48547 -0.328903 0.83742
                  }
                }
              }
              JOINT lRing1
              {
                OFFSET 8.82822 0.546677 1.51678
                CHANNELS 3 Zrotation Xrotation Yrotation
                JOINT lRing2
                {
                  OFFSET 2.60934 -0.819778 -0.0198488
                  CHANNELS 3 Zrotation Xrotation Yrotation
                  End Site
                  {
                    OFFSET 2.33842 -0.294052 0.168128
                  }
                }
              }
              JOINT lPinky1
              {
                OFFSET 8.27202 -0.0477905 -0.4584
                CHANNELS 3 Zrotation Xrotation Yrotation
                JOINT lPinky2
                {
                  OFFSET 1.82734 -0.647385 -0.700984
                  CHANNELS 3 Zrotation Xrotation Yrotation
                  End Site
                  {
                    OFFSET 1.69225 -0.51767 -0.607171
                  }
                }
              }
            }
          }
        }
      }
    }
  }
  JOINT rButtock
  {
    OFFSET -8.77824 4.35084 1.2192
    CHANNELS 3 Zrotation Xrotation Yrotation
    JOINT rThigh
    {
      OFFSET 0 -1.70687 -2.19456
      CHANNELS 3 Zrotation Xrotation Yrotation
      JOINT rShin
      {
        OFFSET 0 -36.8199 0.73152
        CHANNELS 3 Zrotation Xrotation Yrotation
        JOINT rFoot
        {
          OFFSET 0.73152 -45.1104 -5.12064
          CHANNELS 3 Zrotation Xrotation Yrotation
          End Site
          {
            OFFSET -1.1221 -3.69964 12.103
          }
        }
      }
    }
  }
  JOINT lButtock
  {
    OFFSET 8.77824 4.35084 1.2192
    CHANNELS 3 Zrotation Xrotation Yrotation
    JOINT lThigh
    {
      OFFSET 0 -1.70687 -2.19456
      CHANNELS 3 Zrotation Xrotation Yrotation
      JOINT lShin
      {
        OFFSET 0 -36.8199 0.73152
        CHANNELS 3 Zrotation Xrotation Yrotation
        JOINT lFoot
        {
          OFFSET -0.73152 -45.1104 -5.12064
          CHANNELS 3 Zrotation Xrotation Yrotation
          End Site
          {
            OFFSET 1.1221 -3.69964 12.103
          }
        }
      }
    }
  }
}
MOTION
Frames:	4
Frame Time:	0.00833333
79.8918 74.0502 -19.0344 -546.176 214.508 -181.087 -14.1537 72.489 16.9882 -9.1502 -14.2163 -0.279589 9.09631 -10.1908 11.8051 -28.4838 3.99455 20.3867 -0.0 0.0 0.0 -0.0 0.0 0.0 1.05899e-13 -1.34012e-13 -3.06185e-13 46.2885 35.6326 37.3971 -25.103 -21.3193 53.3109 -0.62309 -21.8397 -3.2289 1.82278e-09 -1.59796e-09 -2.67944e-09 3.19617e-09 -2.81549e-09 -4.601e-09 1.82278e-09 -1.59796e-09 -2.67946e-09 7.73091 5.47488 0.417314 1.82278e-09 -1.59796e-09 -2.67944e-09 2.90554 0.965183 0.102902 1.82279e-09 -1.59796e-09 -2.67944e-09 10.2786 0.731801 0.0259123 1.82278e-09 -1.59796e-09 -2.67944e-09 2.22167 -0.733487 -0.20892 1.05834e-13 -1.34049e-13 -3.06392e-13 -29.2385 35.4161 -40.5464 25.9905 -23.4103 -56.7293 0.793523 -24.4407 3.66218 8.31062e-10 3.306e-09 2.45509e-09 1.38623e-09 5.70987e-09 4.26186e-09 8.31051e-10 3.30598e-09 2.4551e-09 -7.73091 5.47488 -0.417314 8.31063e-10 3.306e-09 2.4551e-09 -2.90554 0.965183 -0.102902 8.31057e-10 3.306e-09 2.45509e-09 -10.2786 0.731801 -0.0259123 8.31067e-10 3.306e-09 2.45509e-09 -2.22167 -0.733487 0.20892 -2.03217e-16 0.0 -3.88251e-19 -27.0787 -16.8611 -34.4658 -7.75289 83.6636 9.04165 -1.06144 -0.310113 -10.6832 2.03217e-16 0.0 3.88251e-19 1.66546 -44.5324 -4.63116 1.33338 63.217 -1.64119 0.0469053 -12.6436 -0.304254
79.3901 74.261 -18.6314 -546.247 213.643 -180.967 -14.7326 72.4583 17.4741 -8.98192 -14.2659 -0.229508 9.10596 -10.1816 11.6846 -28.2706 3.98943 20.1328 -0.0 0.0 0.0 -0.0 0.0 0.0 3.46716e-13 -2.03537e-13 -5.24642e-13 45.8805 35.6462 37.693 -25.2206 -21.5776 53.7422 -0.628534 -21.9287 -3.24347 1.66174e-09 -1.04302e-09 -1.1781e-09 2.89329e-09 -1.82613e-09 -2.00824e-09 1.66174e-09 -1.04302e-09 -1.17812e-09 7.73091 5.47488 0.417314 1.66174e-09 -1.04302e-09 -1.1781e-09 2.90554 0.965183 0.102902 1.66174e-09 -1.04302e-09 -1.1781e-09 10.2786 0.731801 0.0259123 1.66174e-09 -1.04302e-09 -1.17809e-09 2.22167 -0.733487 -0.20892 3.46668e-13 -2.03574e-13 -5.24841e-13 -29.4116 35.2872 -40.63 25.9982 -23.4299 -56.7579 0.791221 -24.4097 3.65686 9.82794e-10 5.91805e-09 4.61381e-09 1.60593e-09 1.02134e-08 7.99601e-09 9.82785e-10 5.91803e-09 4.61381e-09 -7.73091 5.47488 -0.417314 9.82795e-10 5.91805e-09 4.61381e-09 -2.90554 0.965183 -0.102902 9.8279e-10 5.91805e-09 4.61381e-09 -10.2786 0.731801 -0.0259123 9.828e-10 5.91805e-09 4.6138e-09 -2.22167 -0.733487 0.20892 -2.03217e-16 0.0 -3.88251e-19 -27.1775 -18.7827 -33.9592 -8.09926 83.8896 9.36156 -1.27698 -1.40779 -10.5297 2.03217e-16 0.0 3.88251e-19 1.45002 -43.9941 -5.25137 1.3072 62.9635 -1.63616 -0.0967692 -12.9255 -0.650988
78.8672 74.5087 -18.2394 -546.24 212.844 -180.931 -14.9842 72.4739 17.4712 -8.56957 -14.2598 -0.205834 8.98072 -10.2973 11.6507 -28.126 3.92667 20.0897 -0.0 0.0 0.0 -0.0 0.0 0.0 5.03953e-13 -1.77173e-13 -5.51613e-13 45.1309 35.6617 38.2833 -25.3263 -21.8142 54.1317 -0.634104 -22.0192 -3.25829 1.11162e-09 -4.5809e-10 1.77445e-10 1.92069e-09 -7.85169e-10 3.2483e-10 1.11162e-09 -4.58087e-10 1.7743e-10 7.73091 5.47488 0.417314 1.11162e-09 -4.58087e-10 1.77448e-10 2.90554 0.965183 0.102902 1.11162e-09 -4.58088e-10 1.77451e-10 10.2786 0.731801 0.0259123 1.11161e-09 -4.58085e-10 1.77455e-10 2.22167 -0.733487 -0.20892 5.03904e-13 -1.7721e-13 -5.51788e-13 -29.9996 35.0653 -40.417 26.0448 -23.55 -56.946 0.798562 -24.5148 3.6747 8.84831e-10 6.62476e-09 5.27981e-09 1.4246e-09 1.14262e-08 9.14398e-09 8.84823e-10 6.62474e-09 5.27981e-09 -7.73091 5.47488 -0.417314 8.84831e-10 6.62476e-09 5.27981e-09 -2.90554 0.965183 -0.102902 8.84827e-10 6.62476e-09 5.27981e-09 -10.2786 0.731801 -0.0259123 8.84837e-10 6.62476e-09 5.2798e-09 -2.22167 -0.733487 0.20892 -2.03217e-16 0.0 -3.88251e-19 -27.1506 -20.7534 -33.4286 -7.59808 83.5206 8.8314 -1.49647 -2.49158 -10.4835 2.03217e-16 0.0 3.88251e-19 1.30307 -43.505 -5.73015 1.28243 62.7271 -1.63558 -0.265696 -13.1993 -1.07279
78.3275 74.6541 -17.8644 -546.105 212.098 -180.872 -15.0037 72.5147 17.1197 -7.9761 -14.2203 -0.200328 8.76002 -10.481 11.6786 -28.0316 3.81298 20.1969 -0.0 0.0 0.0 -0.0 0.0 0.0 6.16139e-13 -9.44039e-14 -4.64634e-13 44.1247 35.6784 39.0926 -25.426 -22.0417 54.5022 -0.639848 -22.112 -3.2735 2.6723e-10 2.12782e-10 1.60508e-09 4.38418e-10 4.07619e-10 2.7769e-09 2.6723e-10 2.12785e-10 1.60507e-09 7.73091 5.47488 0.417314 2.67228e-10 2.12784e-10 1.60509e-09 2.90554 0.965183 0.102902 2.67231e-10 2.12784e-10 1.60509e-09 10.2786 0.731801 0.0259123 2.67225e-10 2.12787e-10 1.60509e-09 2.22167 -0.733487 -0.20892 6.16075e-13 -9.44417e-14 -4.64774e-13 -30.9166 34.7632 -39.9811 26.1136 -23.7295 -57.2324 0.81045 -24.6827 3.70329 6.28219e-10 6.23379e-09 5.0882e-09 9.86535e-10 1.07426e-08 8.80577e-09 6.28213e-10 6.23377e-09 5.0882e-09 -7.73091 5.47488 -0.417314 6.2822e-10 6.23379e-09 5.0882e-09 -2.90554 0.965183 -0.102902 6.28216e-10 6.23379e-09 5.0882e-09 -10.2786 0.731801 -0.0259123 6.28224e-10 6.23379e-09 5.08819e-09 -2.22167 -0.733487 0.20892 -2.03217e-16 0.0 -3.88251e-19 -26.9712 -22.8177 -32.8524 -6.59532 82.6421 7.79772 -1.76391 -3.81247 -10.4903 2.03217e-16 0.0 3.88251e-19 1.23279 -43.0605 -6.07851 1.25897 62.5089 -1.63909 -0.458518 -13.4658 -1.56011
